<svg xmlns="http://www.w3.org/2000/svg" viewBox="0 0 100 100">
  <defs>
    <linearGradient id="grad" x1="0%" y1="0%" x2="100%" y2="100%">
      <stop offset="0%" stop-color="#14b8a6" /> <stop offset="100%" stop-color="#06b6d4" /> </linearGradient>
  </defs>
  <rect width="100" height="100" rx="25" fill="url(#grad)" />
  
  <path d="M 25 55 L 35 45 M 35 45 L 50 30 L 65 45 M 35 45 L 35 75 A 5 5 0 0 0 40 80 L 45 80 M 75 55 L 65 45 M 65 45 L 65 75 A 5 5 0 0 1 60 80 L 55 80 M 45 80 A 5 5 0 0 0 50 75 L 50 65 A 5 5 0 0 1 55 60 L 55 60 A 5 5 0 0 1 60 65 L 60 75 A 5 5 0 0 0 65 80 M 45 80 L 55 80" 
        stroke="white" stroke-width="8" stroke-linecap="round" stroke-linejoin="round" fill="none"/>
  
  <circle cx="80" cy="80" r="18" fill="white" />
  <circle cx="80" cy="80" r="14" fill="#06b6d4" />
  <path d="M 73 81 L 78 86 L 87 75" stroke="white" stroke-width="4" stroke-linecap="round" stroke-linejoin="round" fill="none" />
</svg>